<svg xmlns="http://www.w3.org/2000/svg" xmlns:xlink="http://www.w3.org/1999/xlink" width="1080" zoomAndPan="magnify" viewBox="0 0 810 809.999993" height="1080" preserveAspectRatio="xMidYMid meet" version="1.0"><defs><clipPath id="0a955fb51b"><path d="M 159 62.296875 L 655 62.296875 L 655 729 L 159 729 Z M 159 62.296875 " clip-rule="nonzero"/></clipPath></defs><g clip-path="url(#0a955fb51b)" stroke="black" stroke-width="3"><path fill="#141414" d="M 654.15625 356.824219 C 655.351562 340.539062 651.796875 323.808594 642.75 310.023438 C 632.164062 293.953125 615.644531 283.375 597.898438 276.675781 C 594.878906 275.527344 591.796875 274.492188 588.664062 273.53125 C 592.09375 261.523438 594.089844 249.28125 594.660156 236.804688 C 594.90625 231.796875 594.925781 226.789062 594.722656 221.777344 C 594.519531 216.765625 594.09375 211.777344 593.445312 206.804688 C 592.792969 201.832031 591.921875 196.898438 590.828125 192.003906 C 589.738281 187.109375 588.425781 182.273438 586.902344 177.496094 C 585.375 172.71875 583.640625 168.019531 581.691406 163.398438 C 579.746094 158.777344 577.59375 154.25 575.242188 149.824219 C 572.890625 145.394531 570.34375 141.078125 567.601562 136.875 C 564.863281 132.675781 561.941406 128.605469 558.835938 124.664062 C 555.8125 120.9375 552.636719 117.347656 549.308594 113.890625 C 545.980469 110.433594 542.511719 107.125 538.902344 103.960938 C 535.289062 100.800781 531.550781 97.796875 527.6875 94.953125 C 523.820312 92.109375 519.839844 89.4375 515.746094 86.929688 C 511.652344 84.425781 507.460938 82.097656 503.167969 79.949219 C 498.875 77.800781 494.5 75.839844 490.039062 74.0625 C 485.582031 72.285156 481.054688 70.699219 476.460938 69.308594 C 471.867188 67.917969 467.222656 66.722656 462.527344 65.726562 C 453.371094 63.804688 444.121094 62.660156 434.773438 62.296875 C 434.449219 62.300781 434.128906 62.34375 433.8125 62.421875 C 433.496094 62.5 433.195312 62.613281 432.902344 62.757812 C 432.613281 62.90625 432.34375 63.082031 432.09375 63.289062 C 431.84375 63.5 431.617188 63.734375 431.421875 63.992188 C 431.222656 64.25 431.058594 64.527344 430.925781 64.824219 C 430.792969 65.121094 430.691406 65.429688 430.628906 65.75 C 430.566406 66.066406 430.539062 66.390625 430.546875 66.714844 C 430.558594 67.039062 430.601562 67.359375 430.683594 67.675781 C 439.289062 102.703125 448.933594 143.136719 433.832031 177.804688 C 419.4375 210.707031 385.171875 227.5625 351.851562 235.25 C 311.671875 244.511719 269.179688 242.59375 230.085938 256.773438 C 199.992188 267.683594 168.734375 289.300781 161.007812 322.300781 C 154.839844 348.695312 164.3125 381.902344 189.765625 394.886719 C 192.917969 396.496094 196.207031 397.753906 199.628906 398.660156 C 204.917969 400.074219 207.179688 391.898438 201.894531 390.484375 C 175.152344 383.347656 163.746094 351.652344 168.765625 326.546875 C 175.261719 294.097656 206.757812 273.484375 236.097656 263.660156 C 275.019531 250.609375 316.910156 252.527344 356.554688 242.859375 C 389.121094 235 422.394531 218.191406 438.597656 187.394531 C 456.203125 153.875 450.175781 114.179688 442.074219 78.804688 C 441.476562 76.226562 440.847656 73.679688 440.234375 71.117188 C 448.738281 71.796875 457.136719 73.140625 465.425781 75.152344 C 473.714844 77.167969 481.792969 79.824219 489.660156 83.121094 C 497.527344 86.417969 505.085938 90.316406 512.332031 94.816406 C 519.578125 99.316406 526.421875 104.359375 532.863281 109.949219 C 536.332031 112.992188 539.660156 116.179688 542.847656 119.515625 C 546.03125 122.851562 549.066406 126.320312 551.945312 129.921875 C 554.828125 133.523438 557.542969 137.246094 560.09375 141.089844 C 562.648438 144.929688 565.023438 148.878906 567.226562 152.929688 C 569.433594 156.980469 571.453125 161.125 573.289062 165.351562 C 575.128906 169.582031 576.777344 173.886719 578.234375 178.261719 C 579.691406 182.636719 580.953125 187.066406 582.019531 191.554688 C 583.085938 196.039062 583.953125 200.566406 584.621094 205.128906 C 587.847656 226.445312 587.109375 249.886719 580.800781 271.285156 C 567.238281 267.746094 553.453125 266.023438 539.441406 266.113281 C 520.355469 266.332031 499.167969 271.535156 486.15625 286.550781 C 479.753906 293.90625 475.914062 303.214844 477.566406 313.039062 C 479.140625 321.90625 485.085938 329.34375 492.292969 334.375 C 507.457031 344.9375 527.4375 343.460938 543.136719 335.050781 C 564.375 323.667969 578.109375 303.859375 586.054688 281.675781 C 602.148438 286.390625 617.769531 294.0625 629.285156 306.546875 C 631.878906 309.410156 634.191406 312.484375 636.230469 315.769531 C 638.265625 319.050781 639.992188 322.488281 641.410156 326.082031 C 642.824219 329.675781 643.90625 333.367188 644.65625 337.15625 C 645.40625 340.945312 645.808594 344.773438 645.867188 348.632812 C 646.652344 379.839844 629.300781 411.363281 604.160156 429.410156 C 572.617188 452.050781 533.226562 459.03125 495.296875 461.96875 C 450.996094 465.398438 406.285156 465.773438 361.875 465.035156 C 315.632812 464.28125 269.484375 461.6875 223.433594 457.253906 C 212.199219 456.207031 200.976562 455.011719 189.765625 453.667969 C 187.058594 453.371094 184.890625 456.640625 185.675781 459.046875 C 202.867188 511.453125 220.070312 563.855469 237.292969 616.261719 C 245.894531 642.464844 254.492188 668.667969 263.09375 694.867188 C 265.167969 701.15625 267.074219 707.621094 269.386719 713.859375 C 271.210938 718.796875 273.742188 723.6875 278.511719 726.359375 C 283.277344 729.03125 289.238281 728.90625 294.667969 728.8125 L 315.117188 728.511719 L 480.949219 726.027344 L 563.855469 724.769531 C 574.664062 724.613281 586.839844 724.316406 591.652344 712.777344 C 593.855469 707.507812 594.1875 701.582031 594.957031 695.984375 L 597.851562 675.234375 C 605.433594 620.730469 613.023438 566.273438 620.617188 511.855469 C 621.539062 505.15625 622.472656 498.460938 623.417969 491.761719 C 623.546875 491.21875 623.570312 490.671875 623.492188 490.121094 C 623.414062 489.570312 623.234375 489.050781 622.960938 488.566406 C 622.683594 488.082031 622.328125 487.667969 621.894531 487.316406 C 621.460938 486.96875 620.976562 486.710938 620.445312 486.542969 C 618.460938 485.976562 615.535156 487.234375 615.21875 489.515625 L 593.195312 647.703125 C 591.339844 661.097656 589.472656 674.492188 587.59375 687.890625 C 586.777344 693.832031 586.257812 699.929688 584.96875 705.796875 C 583.804688 711.078125 581.332031 714.378906 575.90625 715.574219 C 570.480469 716.769531 564.722656 716.28125 559.261719 716.359375 L 538.808594 716.660156 L 498.664062 717.273438 L 338.101562 719.679688 L 297.96875 720.273438 C 293.015625 720.355469 285.777344 721.613281 281.609375 718.230469 C 277.769531 715.085938 276.652344 708.910156 275.207031 704.476562 L 250.035156 627.738281 L 200.039062 475.476562 L 195.886719 462.804688 C 242.808594 468.042969 289.90625 471.414062 337.175781 472.914062 C 385.503906 474.40625 433.972656 474.074219 482.253906 471.339844 C 522.75 469.011719 565.191406 463.746094 600.433594 442.097656 C 630.132812 423.78125 651.546875 392.039062 654.15625 356.824219 Z M 560.300781 310.070312 C 549.679688 322.347656 534.863281 333.257812 517.964844 333.414062 C 502.988281 333.558594 482.632812 322.488281 486 304.800781 C 489.492188 286.390625 511.59375 277.523438 528.019531 275.355469 C 544.441406 273.1875 561.890625 275.355469 578.125 279.476562 C 574.011719 290.738281 568.070312 300.933594 560.300781 310.070312 Z M 560.300781 310.070312 " fill-opacity="1" fill-rule="nonzero" stroke="black" stroke-width="3"/></g><path fill="#141414" d="M 343.386719 534.554688 C 342.050781 529.273438 333.855469 531.507812 335.191406 536.820312 L 362.1875 643.097656 L 369.832031 673.1875 C 371.171875 678.472656 379.367188 676.238281 378.015625 670.925781 C 369.015625 635.507812 360.023438 600.082031 351.035156 564.648438 Z M 343.386719 534.554688 " fill-opacity="1" fill-rule="nonzero"stroke="black" stroke-width="3"/><path fill="#141414" d="M 492.652344 526.710938 C 489.789062 558.847656 486.234375 590.90625 481.988281 622.894531 C 480.792969 631.910156 479.53125 640.902344 478.210938 649.875 C 478.082031 650.417969 478.054688 650.964844 478.132812 651.515625 C 478.210938 652.070312 478.386719 652.585938 478.664062 653.070312 C 478.941406 653.558594 479.296875 653.972656 479.730469 654.324219 C 480.167969 654.671875 480.652344 654.929688 481.183594 655.09375 C 483.183594 655.644531 486.078125 654.417969 486.40625 652.136719 C 491.136719 619.710938 495.164062 587.1875 498.488281 554.570312 C 499.433594 545.292969 500.320312 536.007812 501.148438 526.710938 C 501.148438 526.433594 501.121094 526.15625 501.066406 525.886719 C 501.007812 525.613281 500.929688 525.347656 500.820312 525.089844 C 500.714844 524.832031 500.582031 524.589844 500.429688 524.359375 C 500.273438 524.128906 500.097656 523.914062 499.898438 523.71875 C 499.703125 523.519531 499.488281 523.347656 499.257812 523.191406 C 499.023438 523.035156 498.78125 522.90625 498.523438 522.800781 C 498.265625 522.695312 498 522.613281 497.726562 522.558594 C 497.453125 522.503906 497.179688 522.476562 496.902344 522.476562 C 496.621094 522.476562 496.347656 522.503906 496.074219 522.558594 C 495.800781 522.613281 495.535156 522.695312 495.277344 522.800781 C 495.019531 522.90625 494.777344 523.035156 494.542969 523.191406 C 494.3125 523.34375 494.097656 523.519531 493.902344 523.71875 C 493.703125 523.914062 493.527344 524.128906 493.371094 524.359375 C 493.21875 524.589844 493.085938 524.832031 492.980469 525.089844 C 492.871094 525.347656 492.792969 525.613281 492.738281 525.886719 C 492.683594 526.15625 492.652344 526.433594 492.652344 526.710938 Z M 492.652344 526.710938 " fill-opacity="1" fill-rule="nonzero" stroke="black" stroke-width="3"/></svg>