<svg xmlns="http://www.w3.org/2000/svg" xmlns:xlink="http://www.w3.org/1999/xlink" width="200" zoomAndPan="magnify" viewBox="0 0 150 149.999998" height="200" preserveAspectRatio="xMidYMid meet" version="1.0"><defs><g/><clipPath id="bad35d485c"><path d="M 25.496094 25.496094 L 124.496094 25.496094 L 124.496094 124.496094 L 25.496094 124.496094 Z M 25.496094 25.496094 " clip-rule="nonzero"/></clipPath><clipPath id="6723178b84"><path d="M 53.679688 50.386719 L 96.429688 50.386719 L 96.429688 99.886719 L 53.679688 99.886719 Z M 53.679688 50.386719 " clip-rule="nonzero"/></clipPath></defs><g clip-path="url(#bad35d485c)"><path fill="#626060" d="M 74.996094 25.496094 C 47.683594 25.496094 25.496094 47.683594 25.496094 74.996094 C 25.496094 102.308594 47.683594 124.496094 74.996094 124.496094 C 102.308594 124.496094 124.496094 102.308594 124.496094 74.996094 C 124.496094 47.683594 102.308594 25.496094 74.996094 25.496094 Z M 74.996094 27.648438 C 101.171875 27.648438 122.34375 48.820312 122.34375 74.996094 C 122.34375 101.171875 101.171875 122.34375 74.996094 122.34375 C 48.820312 122.34375 27.648438 101.171875 27.648438 74.996094 C 27.648438 48.820312 48.820312 27.648438 74.996094 27.648438 Z M 74.996094 27.648438 " fill-opacity="1" fill-rule="nonzero"/></g><g clip-path="url(#6723178b84)"><path fill="#626060" d="M 56.835938 71.902344 C 57.714844 71.089844 58.832031 70.652344 60.015625 70.652344 C 60.140625 70.652344 60.273438 70.65625 60.402344 70.667969 L 60.890625 70.707031 C 61.199219 70.734375 61.488281 70.582031 61.648438 70.324219 C 61.8125 70.070312 61.824219 69.746094 61.671875 69.476562 C 61.285156 68.785156 61.078125 68.003906 61.078125 67.210938 C 61.078125 65.898438 61.636719 64.640625 62.613281 63.765625 C 63.59375 62.886719 64.902344 62.472656 66.199219 62.613281 L 68.246094 62.839844 C 68.589844 62.882812 68.902344 62.707031 69.0625 62.410156 C 69.21875 62.117188 69.183594 61.753906 68.972656 61.496094 C 68.125 60.464844 67.65625 59.160156 67.65625 57.820312 C 67.65625 54.640625 70.238281 52.050781 73.410156 52.050781 L 74.519531 52.050781 C 74.253906 52.886719 74.257812 53.800781 74.558594 54.664062 C 75.027344 56.015625 76.140625 57.015625 77.535156 57.339844 L 80.25 57.96875 C 81.546875 58.265625 82.453125 59.410156 82.453125 60.742188 C 82.453125 61.480469 82.148438 62.175781 81.625 62.707031 L 71 61.949219 L 70.886719 63.589844 L 82.382812 64.414062 L 85.902344 64.808594 C 87.683594 65.007812 89.03125 66.511719 89.03125 68.3125 C 89.03125 69.476562 88.460938 70.53125 87.503906 71.191406 L 63.609375 69.367188 L 63.480469 71.011719 L 88.628906 72.929688 L 91.609375 73.167969 C 93.386719 73.316406 94.785156 74.828125 94.785156 76.621094 C 94.785156 78.53125 93.238281 80.085938 91.332031 80.085938 L 60.023438 80.085938 C 57.433594 80.085938 55.324219 77.96875 55.324219 75.371094 C 55.324219 74.035156 55.859375 72.804688 56.835938 71.902344 Z M 85.140625 98.226562 L 80.972656 98.226562 L 83.964844 81.734375 L 90.371094 81.734375 Z M 74.230469 98.226562 L 70.015625 98.226562 L 67.777344 81.734375 L 74.230469 81.734375 Z M 82.289062 81.734375 L 79.300781 98.226562 L 75.875 98.226562 L 75.875 81.734375 Z M 59.734375 81.734375 L 66.117188 81.734375 L 68.355469 98.226562 L 64.96875 98.226562 Z M 57.890625 81.355469 L 63.582031 99.300781 C 63.691406 99.640625 64.011719 99.875 64.367188 99.875 L 85.742188 99.875 C 86.097656 99.875 86.417969 99.640625 86.527344 99.300781 L 92.121094 81.667969 C 94.558594 81.285156 96.429688 79.171875 96.429688 76.621094 C 96.429688 73.976562 94.367188 71.738281 91.738281 71.527344 L 89.675781 71.359375 C 90.316406 70.492188 90.675781 69.433594 90.675781 68.3125 C 90.675781 65.671875 88.699219 63.460938 86.082031 63.167969 L 83.546875 62.886719 C 83.90625 62.234375 84.097656 61.5 84.097656 60.742188 C 84.097656 58.636719 82.667969 56.832031 80.621094 56.359375 L 77.902344 55.730469 C 77.066406 55.539062 76.394531 54.9375 76.109375 54.121094 C 75.828125 53.304688 75.984375 52.414062 76.519531 51.742188 C 76.71875 51.492188 76.753906 51.15625 76.617188 50.867188 C 76.480469 50.582031 76.195312 50.402344 75.875 50.402344 L 73.410156 50.402344 C 69.328125 50.402344 66.011719 53.730469 66.011719 57.820312 C 66.011719 58.929688 66.261719 60.023438 66.730469 61.011719 L 66.382812 60.976562 C 64.613281 60.773438 62.84375 61.347656 61.519531 62.535156 C 60.191406 63.722656 59.433594 65.429688 59.433594 67.210938 C 59.433594 67.824219 59.523438 68.429688 59.699219 69.011719 C 58.226562 69.089844 56.8125 69.679688 55.722656 70.691406 C 54.425781 71.890625 53.679688 73.597656 53.679688 75.371094 C 53.679688 78.125 55.4375 80.472656 57.890625 81.355469 " fill-opacity="1" fill-rule="nonzero"/></g><path fill="#626060" d="M 70.945312 56.171875 L 69.300781 56.171875 L 69.300781 57.820312 L 70.945312 57.820312 L 70.945312 56.171875 " fill-opacity="1" fill-rule="nonzero"/><path fill="#626060" d="M 75.875 58.648438 L 74.230469 58.648438 L 74.230469 60.296875 L 75.875 60.296875 L 75.875 58.648438 " fill-opacity="1" fill-rule="nonzero"/><path fill="#626060" d="M 78.34375 65.242188 L 76.699219 65.242188 L 76.699219 66.890625 L 78.34375 66.890625 L 78.34375 65.242188 " fill-opacity="1" fill-rule="nonzero"/><path fill="#626060" d="M 66.011719 66.066406 L 64.367188 66.066406 L 64.367188 67.714844 L 66.011719 67.714844 L 66.011719 66.066406 " fill-opacity="1" fill-rule="nonzero"/><path fill="#626060" d="M 85.742188 67.714844 L 84.097656 67.714844 L 84.097656 69.367188 L 85.742188 69.367188 L 85.742188 67.714844 " fill-opacity="1" fill-rule="nonzero"/><path fill="#626060" d="M 60.257812 73.488281 L 58.613281 73.488281 L 58.613281 75.136719 L 60.257812 75.136719 L 60.257812 73.488281 " fill-opacity="1" fill-rule="nonzero"/><path fill="#626060" d="M 71.765625 73.488281 L 70.121094 73.488281 L 70.121094 75.136719 L 71.765625 75.136719 L 71.765625 73.488281 " fill-opacity="1" fill-rule="nonzero"/><path fill="#626060" d="M 64.367188 76.785156 L 62.722656 76.785156 L 62.722656 78.4375 L 64.367188 78.4375 L 64.367188 76.785156 " fill-opacity="1" fill-rule="nonzero"/><path fill="#626060" d="M 79.988281 75.960938 L 78.34375 75.960938 L 78.34375 77.609375 L 79.988281 77.609375 L 79.988281 75.960938 " fill-opacity="1" fill-rule="nonzero"/><path fill="#626060" d="M 90.675781 74.3125 L 89.03125 74.3125 L 89.03125 75.960938 L 90.675781 75.960938 L 90.675781 74.3125 " fill-opacity="1" fill-rule="nonzero"/><g fill="#626060" fill-opacity="1"><g transform="translate(52.864024, 44.860181)"><g><path d="M -0.28125 -5.84375 C 0.0078125 -6.039062 0.332031 -6.171875 0.6875 -6.234375 C 1.050781 -6.296875 1.40625 -6.296875 1.75 -6.234375 L 1.65625 -5.421875 C 1.394531 -5.492188 1.128906 -5.507812 0.859375 -5.46875 C 0.585938 -5.425781 0.34375 -5.335938 0.125 -5.203125 C -0.300781 -4.921875 -0.566406 -4.539062 -0.671875 -4.0625 C -0.773438 -3.59375 -0.695312 -3.148438 -0.4375 -2.734375 C -0.164062 -2.316406 0.207031 -2.054688 0.6875 -1.953125 C 1.164062 -1.847656 1.617188 -1.9375 2.046875 -2.21875 C 2.492188 -2.5 2.78125 -2.914062 2.90625 -3.46875 L 3.625 -3.28125 C 3.550781 -2.914062 3.410156 -2.578125 3.203125 -2.265625 C 2.992188 -1.960938 2.738281 -1.710938 2.4375 -1.515625 C 1.8125 -1.117188 1.148438 -0.988281 0.453125 -1.125 C -0.234375 -1.269531 -0.769531 -1.648438 -1.15625 -2.265625 C -1.550781 -2.878906 -1.660156 -3.523438 -1.484375 -4.203125 C -1.316406 -4.890625 -0.914062 -5.4375 -0.28125 -5.84375 Z M -0.28125 -5.84375 "/></g></g></g><g fill="#626060" fill-opacity="1"><g transform="translate(58.808261, 41.247963)"><g><path d="M 2.765625 -6.5 L 3.84375 -3.765625 C 4.082031 -3.148438 4.09375 -2.59375 3.875 -2.09375 C 3.65625 -1.601562 3.222656 -1.234375 2.578125 -0.984375 C 1.941406 -0.734375 1.367188 -0.710938 0.859375 -0.921875 C 0.359375 -1.128906 -0.0078125 -1.539062 -0.25 -2.15625 L -1.328125 -4.890625 L -0.515625 -5.203125 L 0.5625 -2.46875 C 0.71875 -2.070312 0.945312 -1.804688 1.25 -1.671875 C 1.5625 -1.535156 1.914062 -1.546875 2.3125 -1.703125 C 2.695312 -1.859375 2.957031 -2.085938 3.09375 -2.390625 C 3.226562 -2.703125 3.21875 -3.054688 3.0625 -3.453125 L 1.984375 -6.1875 Z M 2.765625 -6.5 "/></g></g></g><g fill="#626060" fill-opacity="1"><g transform="translate(65.806462, 38.721752)"><g><path d="M -0.265625 -5.09375 L 1.703125 -5.453125 C 2.328125 -5.566406 2.835938 -5.507812 3.234375 -5.28125 C 3.628906 -5.0625 3.878906 -4.675781 3.984375 -4.125 C 4.085938 -3.5625 3.992188 -3.085938 3.703125 -2.703125 C 3.421875 -2.328125 2.96875 -2.082031 2.34375 -1.96875 L 1.203125 -1.765625 L 1.484375 -0.28125 L 0.65625 -0.125 Z M 0.703125 -4.484375 L 1.0625 -2.53125 L 2.171875 -2.734375 C 2.972656 -2.878906 3.3125 -3.285156 3.1875 -3.953125 C 3.070312 -4.585938 2.613281 -4.832031 1.8125 -4.6875 Z M 0.703125 -4.484375 "/></g></g></g><g fill="#626060" fill-opacity="1"><g transform="translate(72.522606, 37.649558)"><g><path d="M 2.921875 -5.078125 C 3.273438 -5.078125 3.617188 -5.003906 3.953125 -4.859375 C 4.296875 -4.710938 4.59375 -4.519531 4.84375 -4.28125 L 4.328125 -3.65625 C 4.148438 -3.851562 3.9375 -4.007812 3.6875 -4.125 C 3.4375 -4.25 3.1875 -4.3125 2.9375 -4.3125 C 2.425781 -4.3125 1.992188 -4.140625 1.640625 -3.796875 C 1.285156 -3.453125 1.109375 -3.035156 1.109375 -2.546875 C 1.109375 -2.046875 1.28125 -1.625 1.625 -1.28125 C 1.976562 -0.9375 2.410156 -0.765625 2.921875 -0.765625 C 3.441406 -0.765625 3.910156 -0.957031 4.328125 -1.34375 L 4.828125 -0.78125 C 4.566406 -0.519531 4.265625 -0.316406 3.921875 -0.171875 C 3.578125 -0.0351562 3.226562 0.03125 2.875 0.03125 C 2.132812 0.03125 1.507812 -0.210938 1 -0.703125 C 0.5 -1.191406 0.25 -1.800781 0.25 -2.53125 C 0.25 -3.25 0.503906 -3.851562 1.015625 -4.34375 C 1.535156 -4.832031 2.171875 -5.078125 2.921875 -5.078125 Z M 2.921875 -5.078125 "/></g></g></g><g fill="#626060" fill-opacity="1"><g transform="translate(79.480755, 37.834718)"><g><path d="M 4.0625 -0.375 L 1.5625 -0.859375 L 0.875 0.171875 L 0 0 L 3.15625 -4.515625 L 4.015625 -4.359375 L 5.21875 1.015625 L 4.328125 0.84375 Z M 3.90625 -1.1875 L 3.40625 -3.546875 L 2.03125 -1.546875 Z M 3.90625 -1.1875 "/></g></g></g><g fill="#626060" fill-opacity="1"><g transform="translate(86.555821, 39.418841)"><g><path d="M 3.734375 1.515625 L 3.046875 -1.171875 L 1.890625 -0.609375 L 1.40625 0.578125 L 0.625 0.25 L 2.53125 -4.421875 L 3.3125 -4.09375 L 2.328125 -1.671875 L 5.53125 -3.1875 L 6.484375 -2.8125 L 3.84375 -1.546875 L 4.6875 1.90625 Z M 3.734375 1.515625 "/></g></g></g><g fill="#626060" fill-opacity="1"><g transform="translate(93.072474, 42.294778)"><g><path d="M 5.921875 -1.265625 L 3.59375 -2.765625 L 2.84375 -1.625 L 4.921875 -0.296875 L 4.515625 0.34375 L 2.4375 -0.984375 L 1.6875 0.1875 L 4.078125 1.71875 L 3.65625 2.359375 L 0.5625 0.359375 L 3.296875 -3.875 L 6.328125 -1.90625 Z M 5.921875 -1.265625 "/></g></g></g><g fill="#626060" fill-opacity="1"><g transform="translate(59.630917, 114.527799)"><g><path d="M 5.171875 1.25 L 4.5 1.09375 L 5.28125 -2.15625 L 3.21875 0.296875 L 2.75 0.1875 L 2.046875 -2.9375 L 1.265625 0.3125 L 0.578125 0.140625 L 1.640625 -4.21875 L 2.5 -4.015625 L 3.25 -0.75 L 5.375 -3.3125 L 6.234375 -3.109375 Z M 5.171875 1.25 "/></g></g></g><g fill="#626060" fill-opacity="1"><g transform="translate(67.538, 116.249665)"><g><path d="M 3.578125 -0.671875 L 1.328125 -0.890625 L 0.796875 0.078125 L 0 0 L 2.421875 -4.265625 L 3.203125 -4.1875 L 4.6875 0.46875 L 3.90625 0.390625 Z M 3.359375 -1.34375 L 2.703125 -3.421875 L 1.671875 -1.515625 Z M 3.359375 -1.34375 "/></g></g></g><g fill="#626060" fill-opacity="1"><g transform="translate(74.379162, 116.80375)"><g><path d="M 3.578125 -0.078125 L 2.0625 -2.03125 L 1.3125 -1.171875 L 1.34375 -0.03125 L 0.59375 -0.015625 L 0.484375 -4.5 L 1.234375 -4.515625 L 1.296875 -2.203125 L 3.375 -4.5625 L 4.265625 -4.59375 L 2.578125 -2.625 L 4.484375 -0.109375 Z M 3.578125 -0.078125 "/></g></g></g><g fill="#626060" fill-opacity="1"><g transform="translate(81.094901, 116.506528)"><g><path d="M 3.21875 -4.328125 L 0.78125 -3.96875 L 0.953125 -2.75 L 3.125 -3.0625 L 3.21875 -2.40625 L 1.046875 -2.09375 L 1.234375 -0.859375 L 3.734375 -1.21875 L 3.828125 -0.546875 L 0.59375 -0.078125 L -0.046875 -4.515625 L 3.125 -4.984375 Z M 3.21875 -4.328125 "/></g></g></g><g fill="#626060" fill-opacity="1"><g transform="translate(87.32184, 115.483473)"><g><path d="M 0.859375 -4.890625 C 1.421875 -5.046875 1.957031 -5.03125 2.46875 -4.84375 L 2.34375 -4.125 C 1.832031 -4.28125 1.375 -4.300781 0.96875 -4.1875 C 0.757812 -4.132812 0.597656 -4.050781 0.484375 -3.9375 C 0.378906 -3.832031 0.347656 -3.703125 0.390625 -3.546875 C 0.429688 -3.398438 0.523438 -3.289062 0.671875 -3.21875 C 0.816406 -3.15625 0.976562 -3.117188 1.15625 -3.109375 C 1.332031 -3.109375 1.53125 -3.097656 1.75 -3.078125 C 1.976562 -3.054688 2.191406 -3.023438 2.390625 -2.984375 C 2.585938 -2.953125 2.757812 -2.867188 2.90625 -2.734375 C 3.0625 -2.597656 3.171875 -2.40625 3.234375 -2.15625 C 3.335938 -1.78125 3.269531 -1.4375 3.03125 -1.125 C 2.789062 -0.820312 2.429688 -0.601562 1.953125 -0.46875 C 1.617188 -0.382812 1.28125 -0.363281 0.9375 -0.40625 C 0.59375 -0.457031 0.28125 -0.5625 0 -0.71875 L 0.140625 -1.421875 C 0.398438 -1.273438 0.675781 -1.179688 0.96875 -1.140625 C 1.269531 -1.109375 1.539062 -1.125 1.78125 -1.1875 C 2.03125 -1.25 2.210938 -1.34375 2.328125 -1.46875 C 2.441406 -1.59375 2.476562 -1.738281 2.4375 -1.90625 C 2.394531 -2.050781 2.300781 -2.160156 2.15625 -2.234375 C 2.019531 -2.304688 1.859375 -2.34375 1.671875 -2.34375 C 1.492188 -2.351562 1.289062 -2.367188 1.0625 -2.390625 C 0.84375 -2.410156 0.632812 -2.429688 0.4375 -2.453125 C 0.238281 -2.484375 0.0625 -2.566406 -0.09375 -2.703125 C -0.25 -2.835938 -0.359375 -3.023438 -0.421875 -3.265625 C -0.515625 -3.640625 -0.441406 -3.972656 -0.203125 -4.265625 C 0.0234375 -4.566406 0.378906 -4.773438 0.859375 -4.890625 Z M 0.859375 -4.890625 "/></g></g></g></svg>