<svg xmlns="http://www.w3.org/2000/svg" xmlns:xlink="http://www.w3.org/1999/xlink" width="500" zoomAndPan="magnify" viewBox="0 0 375 374.999991" height="500" preserveAspectRatio="xMidYMid meet" version="1.0"><defs><g/><clipPath id="d309ac54c4"><path d="M 63.742188 63.742188 L 311.242188 63.742188 L 311.242188 311.242188 L 63.742188 311.242188 Z M 63.742188 63.742188 " clip-rule="nonzero"/></clipPath><clipPath id="65af42977b"><path d="M 134.199219 126 L 240.699219 126 L 240.699219 248.96875 L 134.199219 248.96875 Z M 134.199219 126 " clip-rule="nonzero"/></clipPath></defs><g clip-path="url(#d309ac54c4)"><path fill="#626060" d="M 187.492188 63.742188 C 119.210938 63.742188 63.742188 119.210938 63.742188 187.492188 C 63.742188 255.769531 119.210938 311.242188 187.492188 311.242188 C 255.769531 311.242188 311.242188 255.769531 311.242188 187.492188 C 311.242188 119.210938 255.769531 63.742188 187.492188 63.742188 Z M 187.492188 69.121094 C 252.933594 69.121094 305.859375 122.046875 305.859375 187.492188 C 305.859375 252.933594 252.933594 305.859375 187.492188 305.859375 C 122.046875 305.859375 69.121094 252.933594 69.121094 187.492188 C 69.121094 122.046875 122.046875 69.121094 187.492188 69.121094 Z M 187.492188 69.121094 " fill-opacity="1" fill-rule="nonzero"/></g><g clip-path="url(#65af42977b)"><path fill="#626060" d="M 142.0625 179.433594 C 144.253906 177.410156 147.039062 176.320312 149.984375 176.320312 C 150.296875 176.320312 150.625 176.335938 150.945312 176.359375 L 152.167969 176.457031 C 152.925781 176.527344 153.648438 176.152344 154.054688 175.511719 C 154.464844 174.878906 154.488281 174.070312 154.113281 173.40625 C 153.144531 171.6875 152.632812 169.742188 152.632812 167.773438 C 152.632812 164.507812 154.023438 161.386719 156.457031 159.207031 C 158.894531 157.03125 162.160156 156 165.390625 156.34375 L 170.488281 156.910156 C 171.34375 157.015625 172.121094 156.582031 172.519531 155.847656 C 172.914062 155.117188 172.824219 154.214844 172.296875 153.574219 C 170.183594 151.011719 169.015625 147.773438 169.015625 144.441406 C 169.015625 136.535156 175.449219 130.101562 183.351562 130.101562 L 186.113281 130.101562 C 185.457031 132.179688 185.464844 134.445312 186.214844 136.589844 C 187.382812 139.953125 190.152344 142.441406 193.625 143.242188 L 200.394531 144.800781 C 203.625 145.546875 205.882812 148.386719 205.882812 151.703125 C 205.882812 153.535156 205.121094 155.261719 203.816406 156.582031 L 177.351562 154.695312 L 177.0625 158.777344 L 205.707031 160.824219 L 214.472656 161.800781 C 218.914062 162.296875 222.265625 166.035156 222.265625 170.507812 C 222.265625 173.398438 220.851562 176.023438 218.464844 177.664062 L 158.9375 173.132812 L 158.617188 177.214844 L 221.265625 181.988281 L 228.691406 182.578125 C 233.121094 182.9375 236.601562 186.699219 236.601562 191.160156 C 236.601562 195.90625 232.746094 199.761719 228.003906 199.761719 L 150.007812 199.761719 C 143.550781 199.761719 138.292969 194.503906 138.292969 188.046875 C 138.292969 184.730469 139.632812 181.675781 142.0625 179.433594 Z M 212.578125 244.839844 L 202.191406 244.839844 L 209.640625 203.859375 L 225.609375 203.859375 Z M 185.402344 244.839844 L 174.894531 244.839844 L 169.320312 203.859375 L 185.402344 203.859375 Z M 205.472656 203.859375 L 198.023438 244.839844 L 189.496094 244.839844 L 189.496094 203.859375 Z M 149.289062 203.859375 L 165.183594 203.859375 L 170.761719 244.839844 L 162.320312 244.839844 Z M 144.6875 202.914062 L 158.871094 247.511719 C 159.144531 248.359375 159.9375 248.9375 160.824219 248.9375 L 214.074219 248.9375 C 214.960938 248.9375 215.753906 248.359375 216.027344 247.511719 L 229.960938 203.691406 C 236.035156 202.746094 240.699219 197.496094 240.699219 191.160156 C 240.699219 184.578125 235.5625 179.015625 229.011719 178.496094 L 223.875 178.082031 C 225.472656 175.929688 226.363281 173.292969 226.363281 170.507812 C 226.363281 163.945312 221.441406 158.457031 214.921875 157.726562 L 208.601562 157.023438 C 209.496094 155.40625 209.976562 153.582031 209.976562 151.703125 C 209.976562 146.46875 206.417969 141.984375 201.3125 140.808594 L 194.546875 139.246094 C 192.457031 138.765625 190.785156 137.269531 190.082031 135.246094 C 189.375 133.222656 189.761719 131.003906 191.097656 129.332031 C 191.59375 128.714844 191.679688 127.875 191.34375 127.164062 C 191 126.449219 190.289062 126 189.496094 126 L 183.351562 126 C 173.183594 126 164.917969 134.277344 164.917969 144.441406 C 164.917969 147.195312 165.542969 149.910156 166.710938 152.367188 L 165.847656 152.277344 C 161.441406 151.773438 157.03125 153.199219 153.726562 156.152344 C 150.421875 159.105469 148.535156 163.347656 148.535156 167.773438 C 148.535156 169.292969 148.757812 170.796875 149.191406 172.246094 C 145.527344 172.4375 142.007812 173.902344 139.285156 176.417969 C 136.054688 179.402344 134.199219 183.644531 134.199219 188.046875 C 134.199219 194.894531 138.582031 200.722656 144.6875 202.914062 " fill-opacity="1" fill-rule="nonzero"/></g><path fill="#626060" d="M 177.207031 140.34375 L 173.113281 140.34375 L 173.113281 144.441406 L 177.207031 144.441406 L 177.207031 140.34375 " fill-opacity="1" fill-rule="nonzero"/><path fill="#626060" d="M 189.496094 146.492188 L 185.402344 146.492188 L 185.402344 150.589844 L 189.496094 150.589844 L 189.496094 146.492188 " fill-opacity="1" fill-rule="nonzero"/><path fill="#626060" d="M 195.640625 162.882812 L 191.542969 162.882812 L 191.542969 166.980469 L 195.640625 166.980469 L 195.640625 162.882812 " fill-opacity="1" fill-rule="nonzero"/><path fill="#626060" d="M 164.917969 164.929688 L 160.824219 164.929688 L 160.824219 169.027344 L 164.917969 169.027344 L 164.917969 164.929688 " fill-opacity="1" fill-rule="nonzero"/><path fill="#626060" d="M 214.074219 169.027344 L 209.976562 169.027344 L 209.976562 173.125 L 214.074219 173.125 L 214.074219 169.027344 " fill-opacity="1" fill-rule="nonzero"/><path fill="#626060" d="M 150.582031 183.371094 L 146.488281 183.371094 L 146.488281 187.46875 L 150.582031 187.46875 L 150.582031 183.371094 " fill-opacity="1" fill-rule="nonzero"/><path fill="#626060" d="M 179.257812 183.371094 L 175.160156 183.371094 L 175.160156 187.46875 L 179.257812 187.46875 L 179.257812 183.371094 " fill-opacity="1" fill-rule="nonzero"/><path fill="#626060" d="M 160.824219 191.566406 L 156.726562 191.566406 L 156.726562 195.664062 L 160.824219 195.664062 L 160.824219 191.566406 " fill-opacity="1" fill-rule="nonzero"/><path fill="#626060" d="M 199.738281 189.519531 L 195.640625 189.519531 L 195.640625 193.617188 L 199.738281 193.617188 L 199.738281 189.519531 " fill-opacity="1" fill-rule="nonzero"/><path fill="#626060" d="M 226.363281 185.421875 L 222.265625 185.421875 L 222.265625 189.519531 L 226.363281 189.519531 L 226.363281 185.421875 " fill-opacity="1" fill-rule="nonzero"/><g fill="#626060" fill-opacity="1"><g transform="translate(132.160059, 112.150443)"><g><path d="M -0.734375 -14.59375 C 0.015625 -15.082031 0.835938 -15.40625 1.734375 -15.5625 C 2.640625 -15.726562 3.519531 -15.722656 4.375 -15.546875 L 4.15625 -13.5625 C 3.507812 -13.726562 2.84375 -13.765625 2.15625 -13.671875 C 1.46875 -13.585938 0.851562 -13.375 0.3125 -13.03125 C -0.75 -12.34375 -1.414062 -11.398438 -1.6875 -10.203125 C -1.957031 -9.015625 -1.753906 -7.898438 -1.078125 -6.859375 C -0.398438 -5.796875 0.535156 -5.132812 1.734375 -4.875 C 2.929688 -4.625 4.0625 -4.84375 5.125 -5.53125 C 6.226562 -6.238281 6.945312 -7.289062 7.28125 -8.6875 L 9.109375 -8.1875 C 8.890625 -7.300781 8.515625 -6.460938 7.984375 -5.671875 C 7.460938 -4.890625 6.832031 -4.265625 6.09375 -3.796875 C 4.53125 -2.796875 2.882812 -2.472656 1.15625 -2.828125 C -0.570312 -3.191406 -1.921875 -4.132812 -2.890625 -5.65625 C -3.859375 -7.164062 -4.132812 -8.78125 -3.71875 -10.5 C -3.300781 -12.226562 -2.304688 -13.59375 -0.734375 -14.59375 Z M -0.734375 -14.59375 "/></g></g></g><g fill="#626060" fill-opacity="1"><g transform="translate(147.020652, 103.119905)"><g><path d="M 6.90625 -16.296875 L 9.609375 -9.421875 C 10.210938 -7.890625 10.234375 -6.5 9.671875 -5.25 C 9.117188 -4 8.046875 -3.0625 6.453125 -2.4375 C 4.867188 -1.8125 3.445312 -1.765625 2.1875 -2.296875 C 0.925781 -2.828125 -0.00390625 -3.859375 -0.609375 -5.390625 L -3.3125 -12.265625 L -1.34375 -13.046875 L 1.359375 -6.171875 C 1.753906 -5.179688 2.34375 -4.515625 3.125 -4.171875 C 3.914062 -3.835938 4.800781 -3.863281 5.78125 -4.25 C 6.738281 -4.625 7.382812 -5.195312 7.71875 -5.96875 C 8.050781 -6.75 8.019531 -7.640625 7.625 -8.640625 L 4.921875 -15.515625 Z M 6.90625 -16.296875 "/></g></g></g><g fill="#626060" fill-opacity="1"><g transform="translate(164.516141, 96.804384)"><g><path d="M -0.6875 -12.703125 L 4.28125 -13.625 C 5.832031 -13.914062 7.101562 -13.773438 8.09375 -13.203125 C 9.09375 -12.628906 9.71875 -11.664062 9.96875 -10.3125 C 10.226562 -8.90625 10 -7.734375 9.28125 -6.796875 C 8.570312 -5.867188 7.441406 -5.257812 5.890625 -4.96875 L 3.03125 -4.4375 L 3.734375 -0.6875 L 1.625 -0.296875 Z M 1.78125 -11.21875 L 2.6875 -6.3125 L 5.453125 -6.828125 C 7.453125 -7.203125 8.296875 -8.222656 7.984375 -9.890625 C 7.691406 -11.492188 6.546875 -12.109375 4.546875 -11.734375 Z M 1.78125 -11.21875 "/></g></g></g><g fill="#626060" fill-opacity="1"><g transform="translate(181.306499, 94.123881)"><g><path d="M 7.28125 -12.671875 C 8.175781 -12.671875 9.046875 -12.5 9.890625 -12.15625 C 10.734375 -11.8125 11.460938 -11.328125 12.078125 -10.703125 L 10.828125 -9.171875 C 10.367188 -9.660156 9.828125 -10.050781 9.203125 -10.34375 C 8.578125 -10.632812 7.945312 -10.78125 7.3125 -10.78125 C 6.039062 -10.78125 4.96875 -10.351562 4.09375 -9.5 C 3.226562 -8.644531 2.796875 -7.597656 2.796875 -6.359375 C 2.796875 -5.097656 3.226562 -4.035156 4.09375 -3.171875 C 4.957031 -2.304688 6.023438 -1.875 7.296875 -1.875 C 8.609375 -1.875 9.78125 -2.375 10.8125 -3.375 L 12.078125 -1.953125 C 11.421875 -1.328125 10.660156 -0.828125 9.796875 -0.453125 C 8.929688 -0.078125 8.0625 0.109375 7.1875 0.109375 C 5.332031 0.109375 3.769531 -0.507812 2.5 -1.75 C 1.238281 -2.988281 0.613281 -4.515625 0.625 -6.328125 C 0.625 -8.117188 1.265625 -9.625 2.546875 -10.84375 C 3.835938 -12.0625 5.414062 -12.671875 7.28125 -12.671875 Z M 7.28125 -12.671875 "/></g></g></g><g fill="#626060" fill-opacity="1"><g transform="translate(198.701863, 94.586784)"><g><path d="M 10.171875 -0.90625 L 3.9375 -2.125 L 2.1875 0.4375 L 0.015625 0 L 7.90625 -11.3125 L 10.0625 -10.890625 L 13.046875 2.5625 L 10.828125 2.125 Z M 9.734375 -2.921875 L 8.5 -8.890625 L 5.0625 -3.84375 Z M 9.734375 -2.921875 "/></g></g></g><g fill="#626060" fill-opacity="1"><g transform="translate(216.38955, 98.547095)"><g><path d="M 9.34375 3.8125 L 7.609375 -2.9375 L 4.734375 -1.546875 L 3.515625 1.4375 L 1.53125 0.625 L 6.296875 -11.0625 L 8.28125 -10.25 L 5.8125 -4.203125 L 13.859375 -7.984375 L 16.1875 -7.03125 L 9.625 -3.890625 L 11.71875 4.78125 Z M 9.34375 3.8125 "/></g></g></g><g fill="#626060" fill-opacity="1"><g transform="translate(232.68118, 105.736947)"><g><path d="M 14.796875 -3.203125 L 9 -6.9375 L 7.15625 -4.078125 L 12.34375 -0.734375 L 11.296875 0.875 L 6.109375 -2.46875 L 4.21875 0.46875 L 10.1875 4.328125 L 9.15625 5.921875 L 1.390625 0.890625 L 8.234375 -9.71875 L 15.828125 -4.8125 Z M 14.796875 -3.203125 "/></g></g></g><g fill="#626060" fill-opacity="1"><g transform="translate(149.0773, 286.31949)"><g><path d="M 12.96875 3.140625 L 11.265625 2.734375 L 13.21875 -5.421875 L 8.09375 0.75 L 6.890625 0.453125 L 5.125 -7.390625 L 3.15625 0.765625 L 1.421875 0.34375 L 4.0625 -10.5625 L 6.25 -10.03125 L 8.109375 -1.90625 L 13.4375 -8.296875 L 15.609375 -7.765625 Z M 12.96875 3.140625 "/></g></g></g><g fill="#626060" fill-opacity="1"><g transform="translate(168.845018, 290.624172)"><g><path d="M 8.921875 -1.640625 L 3.296875 -2.203125 L 1.96875 0.203125 L 0.015625 0 L 6.0625 -10.65625 L 8 -10.46875 L 11.75 1.1875 L 9.75 0.984375 Z M 8.375 -3.40625 L 6.78125 -8.5625 L 4.171875 -3.828125 Z M 8.375 -3.40625 "/></g></g></g><g fill="#626060" fill-opacity="1"><g transform="translate(185.947903, 292.009315)"><g><path d="M 8.96875 -0.21875 L 5.171875 -5.078125 L 3.296875 -2.9375 L 3.359375 -0.078125 L 1.46875 -0.03125 L 1.203125 -11.25 L 3.09375 -11.296875 L 3.234375 -5.5 L 8.453125 -11.421875 L 10.6875 -11.484375 L 6.453125 -6.578125 L 11.234375 -0.265625 Z M 8.96875 -0.21875 "/></g></g></g><g fill="#626060" fill-opacity="1"><g transform="translate(202.737262, 291.266266)"><g><path d="M 8.03125 -10.765625 L 1.96875 -9.90625 L 2.40625 -6.921875 L 7.828125 -7.703125 L 8.0625 -6.015625 L 2.640625 -5.234375 L 3.078125 -2.171875 L 9.34375 -3.0625 L 9.59375 -1.375 L 1.453125 -0.203125 L -0.140625 -11.3125 L 7.796875 -12.453125 Z M 8.03125 -10.765625 "/></g></g></g><g fill="#626060" fill-opacity="1"><g transform="translate(218.304598, 288.708667)"><g><path d="M 2.125 -12.234375 C 3.539062 -12.597656 4.90625 -12.5625 6.21875 -12.125 L 5.875 -10.3125 C 4.601562 -10.6875 3.460938 -10.738281 2.453125 -10.46875 C 1.898438 -10.332031 1.488281 -10.125 1.21875 -9.84375 C 0.945312 -9.5625 0.859375 -9.242188 0.953125 -8.890625 C 1.046875 -8.535156 1.269531 -8.265625 1.625 -8.078125 C 1.988281 -7.890625 2.40625 -7.796875 2.875 -7.796875 C 3.34375 -7.796875 3.847656 -7.769531 4.390625 -7.71875 C 4.941406 -7.675781 5.460938 -7.613281 5.953125 -7.53125 C 6.453125 -7.445312 6.898438 -7.222656 7.296875 -6.859375 C 7.691406 -6.503906 7.972656 -6.019531 8.140625 -5.40625 C 8.378906 -4.457031 8.191406 -3.597656 7.578125 -2.828125 C 6.972656 -2.066406 6.066406 -1.523438 4.859375 -1.203125 C 4.023438 -0.984375 3.179688 -0.925781 2.328125 -1.03125 C 1.472656 -1.132812 0.6875 -1.378906 -0.03125 -1.765625 L 0.34375 -3.546875 C 1.019531 -3.191406 1.722656 -2.960938 2.453125 -2.859375 C 3.179688 -2.753906 3.835938 -2.78125 4.421875 -2.9375 C 5.066406 -3.101562 5.535156 -3.347656 5.828125 -3.671875 C 6.128906 -4.003906 6.226562 -4.378906 6.125 -4.796875 C 6.03125 -5.160156 5.800781 -5.429688 5.4375 -5.609375 C 5.082031 -5.785156 4.671875 -5.875 4.203125 -5.875 C 3.742188 -5.882812 3.234375 -5.910156 2.671875 -5.953125 C 2.117188 -5.992188 1.601562 -6.050781 1.125 -6.125 C 0.644531 -6.207031 0.207031 -6.421875 -0.1875 -6.765625 C -0.59375 -7.109375 -0.875 -7.578125 -1.03125 -8.171875 C -1.269531 -9.097656 -1.097656 -9.925781 -0.515625 -10.65625 C 0.0546875 -11.394531 0.9375 -11.921875 2.125 -12.234375 Z M 2.125 -12.234375 "/></g></g></g></svg>