<svg xmlns="http://www.w3.org/2000/svg" xmlns:xlink="http://www.w3.org/1999/xlink" width="800" zoomAndPan="magnify" viewBox="0 0 600 449.999984" height="600" preserveAspectRatio="xMidYMid meet" version="1.0"><defs><clipPath id="84d6fb5534"><path d="M 233 135 L 367.417969 135 L 367.417969 315 L 233 315 Z M 233 135 " clip-rule="nonzero"/></clipPath></defs><g clip-path="url(#84d6fb5534)"><path fill="#ffffff" d="M 367.011719 214.511719 C 367.335938 210.117188 366.375 205.597656 363.9375 201.878906 C 361.085938 197.539062 356.632812 194.683594 351.851562 192.875 C 351.039062 192.566406 350.207031 192.285156 349.363281 192.027344 C 350.285156 188.785156 350.824219 185.480469 350.980469 182.113281 C 351.113281 179.402344 351.003906 176.703125 350.652344 174.011719 C 350.300781 171.320312 349.710938 168.683594 348.886719 166.101562 C 348.0625 163.515625 347.015625 161.023438 345.746094 158.628906 C 344.476562 156.230469 343 153.96875 341.324219 151.835938 C 339.691406 149.820312 337.902344 147.957031 335.953125 146.25 C 334.003906 144.539062 331.921875 143.003906 329.714844 141.648438 C 327.503906 140.296875 325.195312 139.136719 322.785156 138.175781 C 320.378906 137.214844 317.90625 136.464844 315.371094 135.925781 C 312.902344 135.40625 310.410156 135.097656 307.894531 135 C 307.714844 135.003906 307.546875 135.042969 307.386719 135.125 C 307.230469 135.203125 307.097656 135.316406 306.988281 135.457031 C 306.882812 135.597656 306.808594 135.757812 306.773438 135.929688 C 306.742188 136.105469 306.746094 136.28125 306.789062 136.453125 C 309.109375 145.90625 311.707031 156.824219 307.636719 166.183594 C 303.757812 175.066406 294.527344 179.617188 285.546875 181.691406 C 274.71875 184.191406 263.269531 183.671875 252.734375 187.5 C 244.621094 190.449219 236.199219 196.28125 234.117188 205.191406 C 232.453125 212.316406 235.007812 221.28125 241.867188 224.789062 C 242.714844 225.222656 243.601562 225.5625 244.523438 225.804688 C 245.949219 226.1875 246.558594 223.980469 245.136719 223.597656 C 237.929688 221.671875 234.855469 213.117188 236.207031 206.335938 C 237.957031 197.578125 246.445312 192.011719 254.351562 189.359375 C 264.839844 185.839844 276.128906 186.355469 286.8125 183.746094 C 295.589844 181.625 304.554688 177.085938 308.921875 168.773438 C 313.667969 159.722656 312.042969 149.007812 309.859375 139.457031 C 309.699219 138.761719 309.527344 138.074219 309.363281 137.382812 C 313.976562 137.75 318.417969 138.828125 322.683594 140.621094 C 326.949219 142.414062 330.832031 144.828125 334.324219 147.863281 C 336.199219 149.511719 337.914062 151.308594 339.46875 153.257812 C 341.023438 155.207031 342.398438 157.277344 343.585938 159.46875 C 344.777344 161.660156 345.765625 163.9375 346.550781 166.304688 C 347.339844 168.671875 347.914062 171.089844 348.273438 173.558594 C 349.144531 179.316406 348.945312 185.644531 347.242188 191.417969 C 343.589844 190.464844 339.875 190 336.097656 190.023438 C 330.957031 190.082031 325.246094 191.488281 321.738281 195.539062 C 320.011719 197.527344 318.980469 200.039062 319.425781 202.691406 C 319.847656 205.085938 321.449219 207.09375 323.390625 208.453125 C 327.480469 211.304688 332.863281 210.90625 337.09375 208.632812 C 342.816406 205.5625 346.519531 200.214844 348.660156 194.226562 C 352.996094 195.496094 357.207031 197.570312 360.308594 200.9375 C 361.71875 202.5 362.808594 204.257812 363.578125 206.214844 C 364.347656 208.167969 364.746094 210.199219 364.777344 212.300781 C 364.988281 220.726562 360.3125 229.234375 353.539062 234.109375 C 345.039062 240.21875 334.421875 242.105469 324.203125 242.898438 C 312.261719 243.824219 300.214844 243.925781 288.246094 243.726562 C 275.785156 243.523438 263.351562 242.820312 250.9375 241.625 C 247.914062 241.34375 244.886719 241.019531 241.867188 240.65625 C 241.136719 240.578125 240.550781 241.460938 240.765625 242.109375 C 245.398438 256.257812 250.035156 270.402344 254.675781 284.550781 C 256.992188 291.625 259.308594 298.699219 261.628906 305.773438 C 262.1875 307.46875 262.699219 309.214844 263.324219 310.898438 C 263.816406 312.234375 264.496094 313.550781 265.78125 314.273438 C 267.066406 314.996094 268.671875 314.960938 270.136719 314.9375 L 275.648438 314.855469 L 320.335938 314.183594 L 342.679688 313.84375 C 345.589844 313.804688 348.871094 313.722656 350.167969 310.605469 C 350.761719 309.183594 350.851562 307.585938 351.058594 306.074219 L 351.839844 300.472656 C 353.882812 285.757812 355.925781 271.054688 357.972656 256.367188 C 358.222656 254.558594 358.472656 252.75 358.726562 250.941406 C 358.800781 250.636719 358.757812 250.351562 358.605469 250.078125 C 358.449219 249.808594 358.226562 249.625 357.925781 249.53125 C 357.394531 249.378906 356.605469 249.71875 356.519531 250.335938 L 350.585938 293.039062 C 350.085938 296.65625 349.582031 300.273438 349.074219 303.886719 C 348.855469 305.492188 348.714844 307.140625 348.367188 308.722656 C 348.054688 310.148438 347.386719 311.039062 345.925781 311.363281 C 344.460938 311.683594 342.910156 311.554688 341.441406 311.574219 L 335.929688 311.65625 L 325.109375 311.820312 L 281.839844 312.46875 L 271.027344 312.632812 C 269.691406 312.652344 267.742188 312.992188 266.617188 312.078125 C 265.582031 311.230469 265.28125 309.5625 264.890625 308.367188 L 258.109375 287.648438 L 244.636719 246.542969 L 243.515625 243.125 C 256.160156 244.539062 268.851562 245.449219 281.589844 245.851562 C 294.613281 246.253906 307.675781 246.167969 320.6875 245.425781 C 331.601562 244.800781 343.039062 243.378906 352.535156 237.535156 C 360.539062 232.589844 366.308594 224.019531 367.011719 214.511719 Z M 341.71875 201.890625 C 338.859375 205.203125 334.863281 208.148438 330.3125 208.191406 C 326.273438 208.230469 320.789062 205.242188 321.695312 200.46875 C 322.636719 195.496094 328.59375 193.105469 333.019531 192.519531 C 337.445312 191.933594 342.148438 192.519531 346.523438 193.628906 C 345.414062 196.671875 343.8125 199.425781 341.71875 201.890625 Z M 341.71875 201.890625 " fill-opacity="1" fill-rule="nonzero"/></g><path fill="#ffffff" d="M 283.265625 262.492188 C 282.90625 261.066406 280.695312 261.671875 281.058594 263.105469 L 288.332031 291.796875 L 290.390625 299.921875 C 290.753906 301.347656 292.960938 300.742188 292.597656 299.308594 C 290.171875 289.746094 287.746094 280.183594 285.324219 270.617188 Z M 283.265625 262.492188 " fill-opacity="1" fill-rule="nonzero"/><path fill="#ffffff" d="M 323.488281 260.375 C 322.71875 269.050781 321.761719 277.707031 320.617188 286.34375 C 320.292969 288.777344 319.953125 291.203125 319.597656 293.625 C 319.523438 293.929688 319.566406 294.21875 319.71875 294.488281 C 319.875 294.761719 320.101562 294.941406 320.398438 295.035156 C 320.9375 295.183594 321.71875 294.851562 321.808594 294.238281 C 323.082031 285.480469 324.167969 276.703125 325.0625 267.898438 C 325.316406 265.394531 325.554688 262.886719 325.777344 260.375 C 325.777344 260.222656 325.75 260.078125 325.691406 259.9375 C 325.632812 259.796875 325.550781 259.675781 325.441406 259.566406 C 325.335938 259.460938 325.210938 259.378906 325.070312 259.320312 C 324.933594 259.261719 324.785156 259.234375 324.632812 259.234375 C 324.484375 259.234375 324.335938 259.261719 324.195312 259.320312 C 324.058594 259.378906 323.933594 259.460938 323.824219 259.566406 C 323.71875 259.675781 323.636719 259.796875 323.578125 259.9375 C 323.519531 260.078125 323.488281 260.222656 323.488281 260.375 Z M 323.488281 260.375 " fill-opacity="1" fill-rule="nonzero"/></svg>